<svg width="1401" height="437" viewBox="0 0 1401 437" fill="none" xmlns="http://www.w3.org/2000/svg">
<path fill-rule="evenodd" clip-rule="evenodd" d="M606.083 436.794C587.248 426.134 567.998 417.493 547.196 412.577C529.655 408.385 511.854 406.109 493.795 407.557C473.873 409.162 457.469 417.7 444.74 433.172C444.539 433.416 444.349 433.663 444.166 433.901C442.836 435.628 441.858 436.899 439.72 433.534C423.627 408.489 399.307 396.743 370.95 391.982C337.16 386.342 303.836 391.309 270.667 397.571C251.232 401.229 232.056 406.016 212.88 410.802L212.879 410.802L212.877 410.803L212.877 410.803L212.876 410.803L212.876 410.803C194.628 415.358 176.381 419.913 157.912 423.495C131.418 428.618 104.821 432.189 78.0167 426.031C30.3588 415.164 0.863651 377.648 0.0357169 328.386C-0.792217 279.797 12.8169 235.037 36.3613 193.278C76.9818 121.196 133.023 63.965 205.156 23.034C227.924 10.0976 252.348 1.24907 278.946 0.110661C287.432 -0.25156 295.867 0.0590041 303.629 4.40566C317.29 11.9606 324.637 27.4324 321.067 42.7492C317.755 57.1345 310.563 69.6053 300.213 80.1097C295.97 84.4046 291.054 87.8717 284.741 88.4409C277.083 89.1136 272.064 85.0774 270.925 77.4708C268.7 62.361 281.637 44.819 296.798 42.4387C297.475 42.3304 298.172 42.2678 298.866 42.2055C302.148 41.9106 305.341 41.6237 305.854 36.5398C306.475 30.2268 304.353 25.1557 299.023 22.6201C293.279 19.8776 287.277 20.5502 281.43 21.8956C261.197 26.3975 244.069 37.1089 227.976 49.5279C187.2 81.0411 153.824 119.437 124.795 161.661C99.9052 197.883 79.5174 236.382 67.978 279.073C62.079 300.961 58.5085 323.005 63.3726 345.721C70.2548 377.907 92.1951 398.243 125.054 403.159C153.152 407.402 180.732 403.573 208.002 397.519C229.639 392.722 251.195 387.577 272.752 382.431C293.523 377.473 314.295 372.515 335.142 367.868C368.466 360.417 402.153 355.605 436.409 355.76C476.201 355.967 513.096 365.799 546.42 388.049C566.032 401.141 585.333 414.595 601.685 431.723C602.643 432.745 603.523 433.788 604.409 434.837L604.409 434.838C604.958 435.488 605.509 436.141 606.083 436.794ZM943.311 24.2763C952.418 20.8094 961.784 18.3773 972.858 21.482C970.546 23.138 968.311 24.7251 966.136 26.2694L966.12 26.2806L966.086 26.3048L966.076 26.3119L966.074 26.3131L966.072 26.3145L966.069 26.3168C960.726 30.1112 955.744 33.6488 950.866 37.3162C921.06 59.36 896.119 85.5951 880.699 119.903C876.145 130.148 872.575 140.653 872.833 152.089C873.144 166.526 881.837 175.064 896.222 175.271C907.193 175.426 916.817 171.286 925.666 165.387C949.158 149.708 965.2 127.509 978.809 103.447C991.228 81.4555 1000.18 58.2733 997.748 32.2451C997.386 28.4912 999.633 28.137 1001.79 27.7964C1002.11 27.7473 1002.42 27.6985 1002.72 27.6398C1017.62 24.6903 1031.8 27.6398 1045.72 33.1248C1066.98 41.5077 1085.92 53.9267 1104.76 66.6562C1118.26 75.8152 1131.92 84.7154 1146.41 92.2185C1146.75 92.3903 1147.08 92.5972 1147.41 92.8043C1148.86 93.7204 1150.32 94.6393 1152.26 92.5291C1159.7 84.5773 1167.23 76.7047 1174.86 68.7414L1174.92 68.6787C1177.95 65.5213 1180.98 62.3496 1184.03 59.153C1168.1 51.4155 1153.06 42.4477 1138.05 33.5014L1138.04 33.495L1138.04 33.493C1131.07 29.3394 1124.11 25.1905 1117.07 21.1716C1078.83 -0.665186 1039.09 -3.66648 997.748 10.3049C991.797 12.323 986.829 13.8754 981.81 8.44213C980.461 6.96603 978.217 6.24606 976.061 5.55396C975.571 5.39688 975.086 5.24124 974.617 5.07852C960.025 -0.0443195 945.278 0.887175 930.685 4.66462C897.413 13.2027 868.021 29.8131 840.182 49.3213C785.642 87.5098 741.916 136.099 704.918 191.053C682.616 224.17 663.004 258.633 651.361 297.132C643.496 323.109 639.46 349.499 645.617 376.459C653.897 412.732 681.839 432.344 718.527 428.256C738.708 426.031 756.871 418.476 773.43 407.247C816.327 378.166 845.77 338.477 863.985 290.25C869.47 275.761 873.247 260.703 872.368 244.972C870.867 219.203 853.998 207.25 829.16 214.339C807.685 220.497 790.143 232.864 775.706 249.681C757.026 271.466 747.091 297.598 739.743 324.868C738.863 328.231 738.087 331.647 737.518 335.114C737.151 337.313 736.935 339.556 736.689 342.105C736.553 343.513 736.408 345.014 736.224 346.653C737.06 345.915 737.674 345.388 738.166 344.966C738.71 344.499 739.104 344.16 739.484 343.807C755.215 328.438 772.032 314.519 792.317 305.463C794.68 304.402 795.155 302.667 795.712 300.634L795.713 300.63C795.753 300.483 795.794 300.335 795.836 300.185C800.803 282.178 807.53 264.946 819.69 250.354C825.641 243.265 832.472 237.417 841.786 235.192C850.531 233.122 856.326 236.952 857.724 245.904C858.965 254.028 857.62 261.945 855.602 269.759C844.425 312.501 819.173 345.98 786.676 374.699C777 383.237 766.34 390.223 753.766 393.845C729.911 400.676 709.937 388.671 704.866 364.557C702.952 355.294 702.9 345.98 704.452 336.821C707.971 315.605 713.353 294.804 721.942 275.089C759.717 188.569 815.499 115.659 889.496 56.8762C906.002 43.7845 923.389 31.8312 943.311 24.2763ZM983.332 39.9982C983.206 41.3268 983.073 42.7394 983.414 44.0431C981.396 66.0869 973.272 86.4231 961.733 105.466C951.125 122.956 937.464 137.755 921.526 150.484C915.834 155.038 909.728 158.867 902.587 160.678C892.342 163.214 885.408 157.108 886.598 146.552C887.581 137.6 890.737 129.269 895.032 121.507C913.713 87.6132 939.12 59.9292 972.185 39.4378C972.293 39.3718 972.401 39.3044 972.511 39.2363C973.089 38.8779 973.698 38.5004 974.307 38.196C975.108 37.8273 975.935 37.2749 976.76 36.7234L976.76 36.7231C978.598 35.4943 980.43 34.2698 981.965 35.0912C983.708 36.0102 983.53 37.8993 983.332 39.9982ZM1094.77 264.428C1111.02 255.218 1124.94 242.85 1138.7 230.431C1174.2 198.401 1207.27 164.093 1236.55 126.267C1238.37 123.938 1240.18 122.748 1243.18 122.696C1245.73 122.625 1248.27 122.279 1250.8 121.936C1251.92 121.784 1253.04 121.633 1254.15 121.506C1255.04 123.327 1254.09 124.262 1253.22 125.128C1252.97 125.369 1252.74 125.605 1252.54 125.853C1203.39 189.449 1148.02 246.679 1080.95 291.802C1079.2 292.992 1077.75 294.182 1076.81 296.2C1066.83 317.727 1057.2 339.356 1051.98 362.642C1050.58 368.851 1049.23 375.164 1050.79 381.633C1052.7 389.55 1057.98 391.982 1065.17 388.101C1070.14 385.462 1074.12 381.529 1078.01 377.493C1089.96 364.991 1099.4 350.667 1108.84 336.347L1108.84 336.346L1108.84 336.342L1108.84 336.339C1112.8 330.33 1116.76 324.323 1120.9 318.451C1140.31 290.922 1159.97 263.6 1185.22 240.936C1196.66 230.69 1208.77 221.376 1223.41 216.098C1243.59 208.801 1252.65 211.234 1266.62 227.171C1266.73 227.125 1266.86 227.084 1266.99 227.042C1267.3 226.941 1267.63 226.836 1267.71 226.654C1271.12 217.909 1277.8 216.408 1286.44 217.029C1293.56 217.566 1300.72 217.434 1307.88 217.302L1307.88 217.302C1311.06 217.243 1314.25 217.184 1317.43 217.184C1318.27 218.97 1317.37 220.116 1316.53 221.184C1316.27 221.509 1316.02 221.826 1315.83 222.152C1298.03 252.302 1280.19 282.432 1262.34 312.567L1262.25 312.718C1251.34 331.15 1240.42 349.583 1229.52 368.024C1227.08 372.111 1224.76 376.251 1223.72 380.96C1223.7 381.045 1223.68 381.13 1223.67 381.215L1223.62 381.446L1223.61 381.448C1223.16 383.478 1222.69 385.597 1224.7 387.273C1226.41 388.675 1228.09 387.999 1229.69 387.351C1229.98 387.233 1230.27 387.117 1230.55 387.014C1238.21 384.065 1244.37 378.838 1250.16 373.25C1264.86 359.175 1277.38 343.289 1288.66 326.42C1292.6 320.573 1296.63 317.571 1303.57 318.865C1304.73 319.07 1305.91 319.027 1307.36 318.974C1308.1 318.947 1308.91 318.917 1309.83 318.917C1303 330.146 1295.75 340.081 1288.3 349.861C1270.24 373.56 1250.99 396.225 1226.93 414.181C1217.3 421.373 1207.21 427.842 1194.9 429.394C1179.89 431.309 1170.58 423.288 1170.22 408.178C1170.15 405.861 1170.17 403.544 1170.19 401.109C1170.2 399.846 1170.22 398.551 1170.22 397.208C1168.2 397.8 1166.82 399.203 1165.48 400.571C1165.06 400.997 1164.64 401.42 1164.21 401.814C1153.76 411.231 1142.95 420.132 1129.8 425.772C1105.43 436.173 1086.08 422.46 1087.89 396.018C1088 394.303 1088.18 392.612 1088.38 390.707L1088.38 390.692C1088.47 389.844 1088.57 388.952 1088.66 387.997C1086.24 389.226 1084.79 390.965 1083.39 392.634L1083.39 392.635L1083.39 392.638C1082.84 393.286 1082.31 393.924 1081.73 394.517C1070.35 406.264 1058.7 417.648 1043.9 425.203C1037.49 428.463 1030.76 430.067 1023.57 428.928C1008.15 426.445 999.662 415.63 999.196 397.984C998.627 377.183 1004.63 357.674 1011.1 338.27C1012.7 333.432 1014.4 328.613 1016.12 323.721L1016.12 323.715C1017.24 320.551 1018.36 317.355 1019.48 314.104C1016.91 314.375 1014.4 314.628 1011.92 314.878C1006.82 315.394 1001.88 315.892 996.971 316.485C995.094 316.719 994.458 318.255 993.857 319.705C993.663 320.174 993.473 320.634 993.245 321.038C980.205 343.341 966.752 365.333 948.123 383.651C930.995 400.468 913.453 416.768 890.789 426.082C887.373 427.48 883.751 428.618 880.129 429.135C860.207 432.033 846.235 420.132 845.149 399.64C844.062 379.511 849.495 360.779 857.671 342.772C879.146 295.269 911.59 256.615 954.229 226.602C965.251 218.84 977.359 213.096 991.227 211.958C1008.87 210.457 1020.93 220.6 1021.5 238.348C1022.12 257.184 1015.6 274.363 1008.41 291.284C1007.5 293.442 1006.52 295.581 1005.53 297.736C1004.88 299.146 1004.23 300.563 1003.59 301.996C1015.7 304.221 1026.47 298.995 1031.64 288.904C1056.53 240.16 1082.92 192.295 1117.12 149.346C1149.98 108.052 1185.38 69.0877 1226.57 35.8151C1238.78 25.9317 1251.61 16.8762 1266.15 10.6149C1275.31 6.68223 1284.73 3.57754 1294.98 6.47531C1302.94 8.75212 1305.84 12.426 1306 20.6536C1306.31 35.1942 1301.03 48.2859 1294.3 60.5496C1292.29 64.2164 1287.95 64.8323 1283.31 65.4908C1281.14 65.7988 1278.91 66.1161 1276.81 66.7592C1277.85 64.5544 1278.86 62.4316 1279.85 60.3642L1279.85 60.3577L1279.85 60.3506C1282.45 54.9023 1284.86 49.8374 1287.11 44.6638C1288.92 40.5241 1290.27 36.1774 1291.51 31.8307C1291.57 31.6157 1291.63 31.3976 1291.69 31.177C1292.45 28.4253 1293.31 25.3009 1290.58 23.2409C1287.99 21.2746 1284.89 22.7234 1282.4 24.1723C1278.11 26.6044 1273.81 29.1399 1269.88 32.0894C1252.34 45.3363 1236.86 60.8084 1222.01 76.9531C1170.32 133.097 1129.29 196.486 1094.15 263.911C1094.14 264.02 1094.11 264.147 1094.08 264.278L1094.07 264.336C1094.05 264.383 1094.04 264.43 1094.03 264.477L1094.03 264.495L1094.02 264.506C1093.93 264.864 1093.84 265.21 1093.94 265.308C1094.31 265.463 1094.62 264.998 1094.77 264.428ZM1143.88 376.148C1143.46 385.617 1149.36 389.653 1157.69 386.29C1161.37 384.789 1164.42 382.305 1167.27 379.615C1172.96 374.181 1178.03 368.23 1182.74 361.969C1194.12 346.756 1204.58 330.922 1214.36 314.725C1223.54 299.483 1232.68 284.194 1241.82 268.906L1241.84 268.887L1241.85 268.856L1241.89 268.791C1246.48 261.125 1251.06 253.46 1255.65 245.8L1255.8 245.555C1257.15 243.311 1258.48 241.095 1256.68 238.348C1254.87 235.554 1252.13 235.037 1249.13 235.192C1245.35 235.399 1241.88 236.589 1238.62 238.452C1233.6 241.35 1229.05 244.92 1224.91 248.956C1195.21 277.572 1171.92 310.896 1153.55 347.687C1148.95 356.95 1144.71 366.316 1143.88 376.148ZM943.88 281.246C926.752 304.324 910.659 326.989 901.707 353.793C899.482 360.469 897.826 367.299 898.602 374.44C899.637 383.961 907.192 388.774 916.299 385.979C921.112 384.53 925.355 381.995 929.288 378.942C950.866 362.124 965.924 340.029 979.584 316.795C980.982 314.363 980.412 313.38 977.98 312.138C964.112 305.152 952.418 295.631 943.88 281.246ZM1007.2 250.594L1007.2 250.581C1007.15 249.479 1007.09 248.034 1006.91 246.628C1005.35 233.898 997.385 229.241 985.484 234.053C978.653 236.848 972.961 241.195 968.252 246.783C949.468 268.879 964.682 291.543 984.604 298.839C986.777 299.616 989.054 300.081 990.555 297.442C998.731 283.109 1006.39 268.568 1007.22 251.026L1007.21 250.838L1007.2 250.594ZM505.941 294.475L505.937 294.479C495.07 304.242 484.215 313.996 470.25 319.435C462.643 322.436 454.882 323.988 446.654 322.695C436.253 321.09 430.044 315.14 428.284 304.739C426.318 292.837 428.957 281.453 432.631 268.62C430.533 270.541 428.532 272.39 426.594 274.181L426.586 274.188L426.585 274.189L426.58 274.194L426.578 274.196L426.573 274.201C421.732 278.673 417.286 282.781 412.709 286.731C396.409 300.858 379.384 313.846 358.634 320.883C345.75 325.282 332.761 325.955 320.187 319.486C303.266 310.793 295.556 292.993 298.454 271.052C301.455 248.284 311.339 228.258 322.05 208.44C323.04 206.584 323.931 204.663 324.828 202.728C325.057 202.235 325.286 201.741 325.517 201.247C326.034 201.092 326.604 200.781 326.138 200.212C326.023 200.059 325.565 200.19 325.147 200.31C325.001 200.352 324.861 200.392 324.741 200.419C323.293 200.734 321.846 201.058 320.398 201.381L320.397 201.381L320.396 201.381L320.396 201.381C316.615 202.226 312.826 203.072 309.01 203.783C306.06 204.3 304.456 206.059 302.956 208.44C300.824 211.764 298.711 215.101 296.599 218.437L296.598 218.438L296.595 218.442L296.592 218.447L296.592 218.447C290.091 228.714 283.593 238.975 276.565 248.853C257.316 275.865 233.927 298.685 205.104 315.502C200.809 317.986 196.256 319.952 191.547 321.453C167.485 328.956 147.873 315.036 146.683 289.732C145.7 269.345 151.34 250.457 160.292 232.605C183.785 185.878 215.816 146.345 260.369 117.885C271.598 110.744 283.758 105.569 297.471 105.621C316.203 105.673 327.535 116.953 327.897 135.633C328.208 151.468 323.292 166.06 317.548 180.497C317.062 181.712 316.522 182.928 315.95 184.217L315.949 184.219L315.945 184.228L315.939 184.24L315.935 184.249C315.538 185.145 315.124 186.077 314.702 187.069C319.426 187.619 323.216 185.771 326.898 183.974L326.901 183.973L326.903 183.972C327.374 183.743 327.842 183.514 328.311 183.291C344.094 175.793 356.689 164.114 369.281 152.438C370.767 151.06 372.253 149.682 373.744 148.311L374.348 147.757C388.014 135.211 401.672 122.673 418.246 114.004C428.802 108.467 439.927 104.793 452.087 106.293C472.009 108.725 482.359 121.765 479.099 141.481C476.563 156.746 469.008 169.682 457.624 180.29C454.882 182.826 451.673 184.792 447.999 185.672C439.41 187.741 431.596 181.273 432.113 172.528C432.89 159.436 445.412 145.103 458.4 143.292C462.747 142.671 465.386 141.636 465.282 137.082C465.127 132.218 462.799 128.855 457.728 127.975C452.605 127.095 447.896 128.234 443.446 130.769C434.752 135.685 427.094 141.946 419.901 148.828C388.699 178.686 366.914 214.39 353.304 255.218C351.39 260.91 350.769 266.861 351.183 272.915C352.114 287.042 362.877 294.7 376.59 290.923C385.697 288.387 393.511 283.316 400.807 277.521C424.921 258.323 444.377 234.727 462.799 210.303C483.445 182.929 504.351 155.762 530.43 133.149C540.573 124.301 551.388 116.332 563.807 110.951C579.796 104.068 595.061 102.516 607.894 118.971C610.016 110.692 615.604 110.485 621.917 110.692C629.919 110.948 637.946 110.894 645.963 110.84C649.3 110.818 652.635 110.795 655.966 110.795C656.562 112.584 655.693 113.762 654.859 114.892L654.859 114.893C654.607 115.234 654.359 115.57 654.155 115.918C625.436 163.835 596.665 211.7 567.843 259.565C565.152 264.015 562.823 268.568 561.737 273.691C560.65 279.021 563.03 281.246 568.205 279.487C577.804 276.256 584.691 269.297 591.511 262.405L591.514 262.403L591.516 262.4L591.518 262.398C592.233 261.676 592.947 260.954 593.664 260.237C606.342 247.456 617.933 233.744 629.006 219.617C630.973 217.081 632.991 215.839 636.251 216.098C638.518 216.278 640.836 216.233 643.1 216.188H643.1H643.101C644.091 216.169 645.071 216.15 646.031 216.15C647.028 217.646 646.224 218.574 645.493 219.418L645.492 219.419C645.313 219.625 645.138 219.827 644.996 220.031C623.418 249.578 600.546 278.09 572.396 301.841C562.72 309.965 552.526 317.365 540.314 321.246C519.978 327.714 507.248 317.882 508.283 296.615C508.297 296.283 508.371 295.934 508.447 295.58C508.657 294.598 508.875 293.578 507.808 292.784L507.767 292.836L507.766 292.837C507.157 293.383 506.549 293.929 505.941 294.475ZM508.49 292.785C508.258 292.785 508.055 292.757 507.859 292.72C508.034 292.501 508.203 292.281 508.335 292.061C508.361 292.19 508.387 292.307 508.413 292.423C508.439 292.54 508.464 292.656 508.49 292.785ZM482.928 269.603C482.928 279.694 487.844 283.368 495.192 281.091C499.021 279.901 502.177 277.572 505.127 274.985C512.061 269.034 517.856 262.048 523.29 254.752C545.047 225.527 563.278 194.098 581.519 162.65L581.523 162.643C586.664 153.78 591.806 144.916 597.027 136.099C599.408 132.063 597.39 128.337 592.681 127.768C589.835 127.458 586.989 127.768 584.195 128.803C578.451 130.924 573.742 134.547 569.292 138.531C559.013 147.748 550.583 158.603 542.168 169.436C540.331 171.802 538.495 174.166 536.64 176.513C517.494 200.833 499.435 225.93 487.43 254.804C485.153 260.393 483.031 265.981 482.928 269.603ZM202.776 264.946C203.035 277.624 212.452 283.471 224.664 277.986C229.218 275.916 233.254 273.07 237.083 269.914C258.403 252.269 273.047 229.293 287.432 206.163C289.243 203.213 287.949 202.385 285.362 201.454C271.132 196.383 257.989 189.811 249.968 176.15C248.32 173.311 247.279 174.93 246.416 176.272L246.416 176.272C246.303 176.447 246.194 176.617 246.087 176.771C245.367 177.789 244.646 178.806 243.925 179.823L243.901 179.857L243.901 179.857C230.693 198.485 217.474 217.129 209.089 238.608C205.777 246.887 203.345 255.373 202.776 264.946ZM311.856 145.413C311.908 141.429 311.597 137.548 309.89 133.926C307.199 128.285 302.956 125.595 296.436 126.423C281.895 128.182 265.44 145.051 264.509 159.333C263.629 172.735 273.771 183.602 291.158 187.845C291.996 188.066 292.872 188.249 293.722 188.426C293.869 188.457 294.014 188.487 294.159 188.518C296.281 188.983 297.885 188.104 298.764 186.293C305.077 173.304 311.235 160.213 311.856 145.413ZM1234.69 77.7299C1224.14 89.0106 1213.73 100.446 1203.39 113.331C1226.26 117.678 1247.99 117.109 1269.26 110.951C1327.73 94.2369 1369.75 56.9282 1400.43 5.64802C1400.95 4.76834 1401.42 3.88862 1400.38 2.69847C1386.1 17.1356 1370.58 30.0203 1353.45 40.8869C1318.52 63.0342 1281.57 78.6614 1239.04 76.0224C1237.23 75.9189 1235.93 76.3846 1234.69 77.7299ZM664.659 149.656C667.653 144.784 670.566 140.067 673.422 135.441C678.119 127.834 682.664 120.473 687.169 113.072C688.307 111.209 689.756 110.743 691.774 110.743C704.504 110.795 717.285 110.795 731.153 110.795C729.277 113.859 727.406 116.833 725.565 119.759L725.563 119.762C721.311 126.52 717.222 133.02 713.611 139.773C709.575 147.327 704.763 150.846 695.759 149.915C688.995 149.199 682.133 149.35 674.794 149.51H674.794C671.521 149.582 668.154 149.656 664.659 149.656ZM1249.75 409.213C1249.54 418.734 1257.2 426.548 1266.77 426.651C1276.14 426.755 1283.64 419.459 1283.9 409.989C1284.16 400.416 1276.55 392.551 1266.93 392.551C1257.62 392.551 1249.96 399.951 1249.75 409.213ZM1275.26 419.51C1269.21 423.495 1264.19 423.909 1259.22 419.666C1252.8 413.974 1251.92 407.298 1256.89 401.399C1261.55 395.863 1269.57 395.086 1275.11 399.64C1280.8 404.349 1281.21 411.645 1275.83 418.527C1275.43 417.719 1274.87 416.993 1274.33 416.293C1272.69 414.171 1271.24 412.288 1275.05 409.058C1278.21 406.367 1275.36 401.193 1271.02 400.52C1260.41 398.967 1259.63 399.64 1259.63 410.507C1259.63 413.361 1259.68 416.165 1259.73 419.018L1259.74 419.148C1263.36 419.821 1263.62 417.441 1263.82 414.802C1263.84 414.604 1263.85 414.391 1263.86 414.171C1263.89 413.129 1263.93 411.953 1265.17 411.697C1266.93 411.335 1267.65 412.887 1268.22 414.181L1268.26 414.27C1269.49 416.982 1270.71 419.664 1275.26 419.51ZM1267.5 408.079C1267.33 408.077 1267.15 408.075 1266.98 408.075C1266.66 407.974 1266.26 407.997 1265.85 408.021C1264.77 408.083 1263.62 408.149 1263.77 406.057C1263.98 403.935 1265.22 403.418 1267.14 403.728C1267.5 403.785 1267.9 403.799 1268.32 403.814C1269.78 403.866 1271.33 403.921 1271.33 405.901C1271.33 408.122 1269.34 408.099 1267.5 408.079Z" fill="#212121"/>
</svg>
